<svg xmlns="http://www.w3.org/2000/svg" xmlns:xlink="http://www.w3.org/1999/xlink" viewBox="0 0 178.88 176.13"><defs><style>.cls-1{fill:none;stroke:#fff;stroke-miterlimit:10;stroke-width:2px;}.cls-2{clip-path:url(#clip-path);}.cls-3{clip-path:url(#clip-path-2);}</style><clipPath id="clip-path"><circle class="cls-1" cx="107.88" cy="71" r="70"/></clipPath><clipPath id="clip-path-2"><rect class="cls-1" x="7.35" y="29.36" width="92.99" height="145.77" rx="46.5" ry="46.5"/></clipPath></defs><title>echolocation</title><g id="Layer_2" data-name="Layer 2"><g id="Home_alternative" data-name="Home alternative"><g id="echolocation"><g class="cls-2"><g class="cls-3"><path class="cls-1" d="M7.35,74.81c10-10.27,21.36-19.06,26.39-21.58A30.48,30.48,0,0,0,26.41,72.5c7.12-5.86,35-20.52,48.8-19.27a107.74,107.74,0,0,0,25.13,23.88l2.51-42.73L57.61,18.05,17.4,24.33S-.19,52,1.06,53.23,7.35,74.81,7.35,74.81Z"/></g><rect class="cls-1" x="7.35" y="29.36" width="92.99" height="145.77" rx="46.5" ry="46.5"/><path class="cls-1" d="M58.5,83.71a14.42,14.42,0,0,0,24.62,0"/><path class="cls-1" d="M58.5,83.71a14.42,14.42,0,0,1,24.62,0"/><path class="cls-1" d="M25.82,83.71a14.43,14.43,0,0,0,24.63,0"/><line class="cls-1" x1="59.5" y1="107.9" x2="49.45" y2="107.9"/><circle class="cls-1" cx="15.38" cy="59.36" r="6"/><circle class="cls-1" cx="100.34" cy="92.19" r="7.54"/><circle class="cls-1" cx="70.63" cy="83.69" r="5.08"/><path class="cls-1" d="M107.58,76.55a17.34,17.34,0,0,1,.3,31.81"/><path class="cls-1" d="M107.88,64.73a28.67,28.67,0,0,1-.27,55.65"/><path class="cls-1" d="M104.18,52.66a40,40,0,0,1,3.7,79.24"/><path class="cls-1" d="M146.51,63.09a54.34,54.34,0,0,1-38.63,83.31"/><path class="cls-1" d="M99.18,38.21l1.65,0a54.11,54.11,0,0,1,25.33,6.25"/><path class="cls-1" d="M88.57,22.63a71,71,0,1,1,19.52,140.48"/><rect class="cls-1" x="131.75" y="46.11" width="12.17" height="12.17"/></g><circle class="cls-1" cx="107.88" cy="71" r="70"/></g></g></g></svg>