<svg xmlns="http://www.w3.org/2000/svg" viewBox="0 0 35.89 6.92"><defs><style>.cls-1{fill:#3fa9f5;}</style></defs><title>eyebrow-no-eyebrow-single</title><g id="Layer_2" data-name="Layer 2"><g id="quiz"><g id="eyebrow-no-eyebrow-single"><path class="cls-1" d="M1.45,6.92a1.5,1.5,0,0,0,0-3,1.5,1.5,0,0,0,0,3Z"/><path class="cls-1" d="M11.63,3a1.5,1.5,0,0,0,0-3,1.5,1.5,0,0,0,0,3Z"/><path class="cls-1" d="M24,3a1.5,1.5,0,0,0,0-3,1.5,1.5,0,0,0,0,3Z"/><path class="cls-1" d="M34.44,6.82a1.5,1.5,0,0,0,0-3,1.5,1.5,0,0,0,0,3Z"/></g></g></g></svg>