<svg xmlns="http://www.w3.org/2000/svg" xmlns:xlink="http://www.w3.org/1999/xlink" viewBox="0 0 142 215.19"><defs><style>.cls-1,.cls-2{fill:none;}.cls-2{stroke:#fff;stroke-miterlimit:10;stroke-width:2px;}.cls-3{clip-path:url(#clip-path);}.cls-4{clip-path:url(#clip-path-2);}.cls-5{clip-path:url(#clip-path-3);}</style><clipPath id="clip-path"><circle class="cls-1" cx="71" cy="71" r="70"/></clipPath><clipPath id="clip-path-2"><circle class="cls-2" cx="71" cy="71" r="70"/></clipPath><clipPath id="clip-path-3"><path class="cls-2" d="M67.17,67.81h7.66a43,43,0,0,1,42.86,42.86v70.52a33.1,33.1,0,0,1-33,33H57.31a33.1,33.1,0,0,1-33-33V110.67A43,43,0,0,1,67.17,67.81Z"/></clipPath></defs><title>fast_reaction_time</title><g id="Layer_2" data-name="Layer 2"><g id="Home_alternative" data-name="Home alternative"><g id="fast_reaction_time"><g class="cls-4"><g class="cls-5"><path class="cls-2" d="M24.31,113.45c10.09-10.31,21.45-19.14,26.5-21.67a30.67,30.67,0,0,0-7.36,19.35c7.15-5.89,35.12-20.61,49-19.35a108,108,0,0,0,25.24,24l2.53-42.91L74.79,56.45,34.4,62.76S16.74,90.52,18,91.78,24.31,113.45,24.31,113.45Z"/></g><path class="cls-2" d="M67.17,67.81h7.66a43,43,0,0,1,42.86,42.86v70.52a33.1,33.1,0,0,1-33,33H57.31a33.1,33.1,0,0,1-33-33V110.67A43,43,0,0,1,67.17,67.81Z"/><circle class="cls-2" cx="24.31" cy="130.9" r="7.57"/><circle class="cls-2" cx="117.69" cy="130.9" r="7.57"/><line class="cls-2" x1="78.92" y1="146.96" x2="68.83" y2="147.06"/><path class="cls-2" d="M102.59,40.84c2.53,0,10.08-1.43,12.47-6.28h0c-2.39-4.85-9.94-6.28-12.47-6.28H86.76V40.84Z"/><line class="cls-2" x1="91.97" y1="40.84" x2="91.97" y2="28.28"/><line class="cls-2" x1="32.96" y1="56.24" x2="32.96" y2="69.13"/><line class="cls-2" x1="106.13" y1="52.62" x2="106.13" y2="65.5"/><line class="cls-2" x1="40.46" y1="45.84" x2="40.46" y2="66.65"/><line class="cls-2" x1="51.46" y1="53.47" x2="51.46" y2="61.94"/><line class="cls-2" x1="59.22" y1="30.52" x2="80.03" y2="30.52"/><line class="cls-2" x1="66.64" y1="38.61" x2="80.03" y2="38.61"/><line class="cls-2" x1="112.13" y1="60.48" x2="112.13" y2="74.93"/><path class="cls-2" d="M75,123a14.4,14.4,0,0,0,24.59,0"/><path class="cls-2" d="M42.37,123A14.4,14.4,0,0,0,67,123"/><path class="cls-2" d="M75,122.93a14.4,14.4,0,0,1,24.59,0"/><path class="cls-2" d="M42.41,122.93a14.4,14.4,0,0,1,24.59,0"/><path class="cls-2" d="M93,117.17A6.38,6.38,0,1,1,82,117"/><path class="cls-2" d="M60.35,117.17a6.38,6.38,0,1,1-11.9,3.21A6.32,6.32,0,0,1,49.4,117"/></g><circle class="cls-2" cx="71" cy="71" r="70"/></g></g></g></svg>