<svg xmlns="http://www.w3.org/2000/svg" xmlns:xlink="http://www.w3.org/1999/xlink" viewBox="0 0 142 181"><defs><style>.cls-1,.cls-2,.cls-6{fill:none;}.cls-2,.cls-6{stroke:#fff;stroke-miterlimit:10;stroke-width:2px;}.cls-3{clip-path:url(#clip-path);}.cls-4{clip-path:url(#clip-path-2);}.cls-5{clip-path:url(#clip-path-3);}.cls-6{stroke-dasharray:4;}</style><clipPath id="clip-path"><circle class="cls-1" cx="71" cy="71" r="70"/></clipPath><clipPath id="clip-path-2"><circle class="cls-2" cx="71" cy="71" r="70"/></clipPath><clipPath id="clip-path-3"><rect class="cls-2" x="34" y="64" width="74" height="116" rx="33" ry="33"/></clipPath></defs><title>halve_need_for_sleep</title><g id="Layer_2" data-name="Layer 2"><g id="Home_alternative" data-name="Home alternative"><g class="cls-4"><g class="cls-5"><path class="cls-2" d="M34,100.17C42,92,51,85,55,83a24.25,24.25,0,0,0-5.83,15.33C54.83,93.67,77,82,88,83a85.67,85.67,0,0,0,20,19l2-34L74,55,42,60S28,82,29,83,34,100.17,34,100.17Z"/></g><rect class="cls-2" x="34" y="64" width="74" height="116" rx="33" ry="33"/><path class="cls-2" d="M74.7,107.25a11.48,11.48,0,0,0,19.6,0"/><path class="cls-2" d="M48.7,107.25a11.48,11.48,0,0,0,19.6,0"/><line class="cls-2" x1="75.5" y1="126.5" x2="67.5" y2="126.5"/><circle class="cls-2" cx="34" cy="114" r="6"/><circle class="cls-2" cx="108" cy="114" r="6"/><polyline class="cls-2" points="78.58 49.56 89.83 49.56 80.58 59.81 91.83 59.81"/><polyline class="cls-2" points="75.08 15.63 92.27 15.63 78.13 31.3 95.33 31.3"/><polyline class="cls-6" points="41.08 2.63 58.27 2.63 44.13 18.3 61.33 18.3"/><polyline class="cls-6" points="47.83 35.81 62.83 35.81 50.49 49.48 65.49 49.48"/><path class="cls-2" d="M48.7,107.26a11.47,11.47,0,0,1,19.59,0"/><circle class="cls-2" cx="58.59" cy="107.23" r="5.08"/></g><circle class="cls-2" cx="71" cy="71" r="70"/></g></g></svg>