<svg xmlns="http://www.w3.org/2000/svg" xmlns:xlink="http://www.w3.org/1999/xlink" viewBox="0 0 148 194.85"><defs><style>.cls-1,.cls-2{fill:none;}.cls-2{stroke:#fff;stroke-miterlimit:10;stroke-width:2px;}.cls-3{clip-path:url(#clip-path);}.cls-4{clip-path:url(#clip-path-2);}.cls-5{clip-path:url(#clip-path-3);}.cls-6{clip-path:url(#clip-path-4);}</style><clipPath id="clip-path"><circle class="cls-1" cx="77" cy="84.85" r="70"/></clipPath><clipPath id="clip-path-2"><circle class="cls-2" cx="77" cy="84.85" r="70"/></clipPath><clipPath id="clip-path-3"><rect class="cls-2" x="40" y="77.85" width="74" height="116" rx="33" ry="33"/></clipPath><clipPath id="clip-path-4"><path class="cls-2" d="M100.3,121.1a11.48,11.48,0,0,1-19.6,0Z"/></clipPath></defs><title>increase_lucid_dream</title><g id="Layer_2" data-name="Layer 2"><g id="Home_alternative" data-name="Home alternative"><g id="photosynthesis"><g class="cls-4"><g class="cls-5"><path class="cls-2" d="M40,114c8-8.17,17-15.17,21-17.17a24.25,24.25,0,0,0-5.83,15.33C60.83,107.52,83,95.85,94,96.85a85.67,85.67,0,0,0,20,19l2-34-36-13-32,5s-14,22-13,23S40,114,40,114Z"/></g><rect class="cls-2" x="40" y="77.85" width="74" height="116" rx="33" ry="33"/><path class="cls-2" d="M54.7,121.1a11.48,11.48,0,0,0,19.6,0"/><line class="cls-2" x1="81.5" y1="140.35" x2="73.5" y2="140.35"/><circle class="cls-2" cx="40" cy="127.85" r="6"/><circle class="cls-2" cx="114" cy="127.85" r="6"/><g class="cls-6"><circle class="cls-2" cx="90.51" cy="121.1" r="5.33"/></g><path class="cls-2" d="M100.3,121.1a11.48,11.48,0,0,1-19.6,0Z"/><circle class="cls-2" cx="49.56" cy="74.94" r="3.99"/><circle class="cls-2" cx="119.94" cy="88.77" r="5.44"/><circle class="cls-2" cx="128.12" cy="104.52" r="3.45"/><path class="cls-2" d="M82.1,54.39a12,12,0,0,0,12,12A12.18,12.18,0,0,0,97.46,66a17.93,17.93,0,0,0,35-3.8,17.93,17.93,0,0,0,9.6-30"/><circle class="cls-2" cx="48.2" cy="55.34" r="9.3"/><path class="cls-2" d="M1,82.82a19,19,0,0,0,29.17,16A11,11,0,0,0,41,107.94"/><path class="cls-2" d="M57.5,55.34a27.06,27.06,0,0,0,15.29-4.71A13.48,13.48,0,0,0,94.2,34.72,16.3,16.3,0,1,0,76,8.27,27.16,27.16,0,0,0,30.52,25a14.63,14.63,0,1,0,5.77,20.11,27.47,27.47,0,0,0,4.2,4.22"/><path class="cls-2" d="M67.68,53.36c5.86.66,11.95,6,11.95,11.54,0,6.93-2.63,12.95-9.35,12.95"/></g><circle class="cls-2" cx="77" cy="84.85" r="70"/></g></g></g></svg>