<svg xmlns="http://www.w3.org/2000/svg" xmlns:xlink="http://www.w3.org/1999/xlink" viewBox="0 0 154.26 199.82"><defs><style>.cls-1,.cls-2,.cls-7{fill:none;}.cls-2,.cls-7{stroke:#fff;stroke-miterlimit:10;stroke-width:2px;}.cls-3{clip-path:url(#clip-path);}.cls-4{clip-path:url(#clip-path-2);}.cls-5{clip-path:url(#clip-path-3);}.cls-6{fill:#fff;}.cls-7{stroke-dasharray:3;}</style><clipPath id="clip-path"><circle class="cls-1" cx="83.26" cy="94.98" r="70"/></clipPath><clipPath id="clip-path-2"><circle class="cls-2" cx="83.26" cy="94.98" r="70"/></clipPath><clipPath id="clip-path-3"><rect class="cls-2" x="10.25" y="10.03" width="74" height="90" rx="33" ry="33"/></clipPath></defs><title>limb_regeneration</title><g id="Layer_2" data-name="Layer 2"><g id="Home_alternative" data-name="Home alternative"><g id="limb_regeneration"><g class="cls-4"><g class="cls-5"><path class="cls-2" d="M10.25,46.19c8-8.16,17-15.16,21-17.16a24.23,24.23,0,0,0-5.83,15.33C31.08,39.69,53.25,28,64.25,29a85.67,85.67,0,0,0,20,19l2-34-36-13-32,5s-14,22-13,23S10.25,46.19,10.25,46.19Z"/></g><rect class="cls-2" x="10.25" y="10.03" width="74" height="90" rx="33" ry="33"/><path class="cls-2" d="M78.05,86.22A33.37,33.37,0,0,1,93.83,103"/><path class="cls-2" d="M51,53.28a11.48,11.48,0,0,0,19.6,0"/><path class="cls-2" d="M25,53.28a11.48,11.48,0,0,0,19.6,0"/><line class="cls-2" x1="51.75" y1="72.53" x2="43.75" y2="72.53"/><circle class="cls-2" cx="10.25" cy="60.03" r="6"/><circle class="cls-2" cx="84.25" cy="60.03" r="6"/><path class="cls-2" d="M51,53.28a11.48,11.48,0,0,1,19.6,0"/><path class="cls-2" d="M25,53.28a11.48,11.48,0,0,1,19.6,0"/><path class="cls-2" d="M59.09,58.66a5.08,5.08,0,1,1,8.85-3.41,5.69,5.69,0,0,1-.1,1"/><path class="cls-2" d="M33.18,58.66A5.08,5.08,0,1,1,42,55.25a5.69,5.69,0,0,1-.1,1"/><path class="cls-6" d="M75.92,127.78a1.5,1.5,0,0,0,0-3,1.5,1.5,0,0,0,0,3Z"/><path class="cls-7" d="M93.84,103c7,10.5,16.08,32.29,33.08,31.79s-2.5-41-8.5-46.75c-5,1.66-9.5,2.12-14.46-1.25-2.73-1.86-7.16-9.61-5-11.06,1.4-.94,2.64,1,4.56,2.87,1,1,2.25,2.56,4.06,3,2.67-5,.07-8.06-1.68-10.06s-5.39-.61-6.34-1.75-1.16-4.59,4.92-4.09,6.5,2.75,7.33,4.17c-1.91-4.67-4.91-7.25-7.58-7.92s-1.75-4.41.42-4.41,9,2.12,12.62,8.37c1-4.33-1.51-6-2.22-7-1-1.52.85-3.22,2.09-2.92,2.61.64,5.69,3.1,7.76,13.24,1.55,7.62,2.06,7.83,3,10.42,2.91,3.58,31,40.92,13.25,62.54s-44.75-11.62-44.75-11.62"/><path class="cls-2" d="M93.79,102.92c4.61,6.91,9.79,18.53,18.07,25.78l-.6,15.19a73.71,73.71,0,0,1-14.84-13.36v35.29a33.1,33.1,0,0,1-33,33H34a33.1,33.1,0,0,1-33-33v-50A33.09,33.09,0,0,1,17.39,87.29"/></g><circle class="cls-2" cx="83.26" cy="94.98" r="70"/></g></g></g></svg>