<svg xmlns="http://www.w3.org/2000/svg" xmlns:xlink="http://www.w3.org/1999/xlink" viewBox="0 0 201.56 292.09"><defs><style>.cls-1,.cls-2{fill:none;}.cls-2{stroke:#fff;stroke-miterlimit:10;stroke-width:2px;}.cls-3{clip-path:url(#clip-path);}.cls-4{clip-path:url(#clip-path-2);}.cls-5{clip-path:url(#clip-path-3);}.cls-6{clip-path:url(#clip-path-4);}</style><clipPath id="clip-path"><circle class="cls-1" cx="100.78" cy="126.5" r="70"/></clipPath><clipPath id="clip-path-2"><circle class="cls-2" cx="100.78" cy="126.5" r="70"/></clipPath><clipPath id="clip-path-3"><rect class="cls-2" x="14.92" y="21.91" width="171.72" height="269.18" rx="33" ry="33"/></clipPath><clipPath id="clip-path-4"><circle class="cls-2" cx="131.03" cy="122.92" r="11.8"/></clipPath></defs><title>mood_dependant_iris_colour</title><g id="Layer_2" data-name="Layer 2"><g id="Home_alternative" data-name="Home alternative"><g class="cls-4"><g class="cls-5"><path class="cls-2" d="M14.92,105.84c18.57-19,39.45-35.2,48.73-39.84C52.05,79.92,50.5,93.07,50.12,101.58,63.27,90.75,114.7,63.68,140.23,66a198.6,198.6,0,0,0,46.41,44.09l4.64-78.9L107.74,1,33.49,12.63S1,63.68,3.32,66,14.92,105.84,14.92,105.84Z"/></g><rect class="cls-2" x="14.92" y="21.91" width="171.72" height="269.18" rx="33" ry="33"/><circle class="cls-2" cx="14.92" cy="137.94" r="13.92"/><circle class="cls-2" cx="186.64" cy="137.94" r="13.92"/><polyline class="cls-2" points="109.96 165.65 100.67 167.65 91.39 167.65"/><path class="cls-2" d="M108.07,123a26.63,26.63,0,0,0,45.47,0"/><path class="cls-2" d="M47.74,123a26.63,26.63,0,0,0,45.46,0"/><path class="cls-2" d="M108.07,123a26.63,26.63,0,0,1,45.47,0"/><path class="cls-2" d="M47.74,123a26.63,26.63,0,0,1,45.46,0"/><circle class="cls-2" cx="70.68" cy="122.93" r="11.8"/><g class="cls-6"><line class="cls-2" x1="135.25" y1="109.99" x2="117.08" y2="128.16"/><line class="cls-2" x1="139.34" y1="114.94" x2="121.18" y2="133.11"/><line class="cls-2" x1="143.43" y1="119.89" x2="125.27" y2="138.05"/></g><circle class="cls-2" cx="131.03" cy="122.92" r="11.8"/><line class="cls-2" x1="100.68" y1="55.77" x2="100.68" y2="197.02"/></g><circle class="cls-2" cx="100.78" cy="126.5" r="70"/></g></g></svg>