<svg xmlns="http://www.w3.org/2000/svg" xmlns:xlink="http://www.w3.org/1999/xlink" viewBox="0 0 172.41 178.54"><defs><style>.cls-1,.cls-5{fill:none;stroke:#fff;stroke-miterlimit:10;stroke-width:2px;}.cls-2{clip-path:url(#clip-path);}.cls-3,.cls-5{opacity:0.6;}.cls-4{clip-path:url(#clip-path-2);}</style><clipPath id="clip-path"><circle class="cls-1" cx="88.01" cy="86.41" r="70"/></clipPath><clipPath id="clip-path-2"><rect class="cls-1" x="51.01" y="61.54" width="74" height="116" rx="33" ry="33"/></clipPath></defs><title>night_vision</title><g id="Layer_2" data-name="Layer 2"><g id="Home_alternative" data-name="Home alternative"><g id="night_vision"><g class="cls-2"><g class="cls-3"><g class="cls-4"><path class="cls-1" d="M51,97.7c8-8.16,17-15.16,21-17.16a24.23,24.23,0,0,0-5.83,15.33C71.84,91.2,94,79.54,105,80.54a85.67,85.67,0,0,0,20,19l2-34-36-13-32,5s-14,22-13,23S51,97.7,51,97.7Z"/></g><rect class="cls-1" x="51.01" y="61.54" width="74" height="116" rx="33" ry="33"/></g><path class="cls-1" d="M91.71,104.79a11.48,11.48,0,0,0,19.6,0"/><path class="cls-1" d="M65.71,104.79a11.48,11.48,0,0,0,19.6,0"/><path class="cls-1" d="M91.71,104.79a11.48,11.48,0,0,1,19.6,0"/><path class="cls-1" d="M65.71,104.79a11.48,11.48,0,0,1,19.6,0"/><circle class="cls-5" cx="51.01" cy="111.54" r="6"/><circle class="cls-5" cx="125.01" cy="111.54" r="6"/><circle class="cls-1" cx="75.6" cy="104.76" r="5.08"/><circle class="cls-1" cx="101.61" cy="104.76" r="5.08"/><line class="cls-5" x1="85.46" y1="0.71" x2="0.71" y2="85.46"/><line class="cls-5" x1="94.08" y1="9.33" x2="9.33" y2="94.08"/><line class="cls-5" x1="102.71" y1="17.96" x2="17.96" y2="102.71"/><line class="cls-5" x1="122.83" y1="15.08" x2="15.08" y2="122.83"/><line class="cls-5" x1="131.46" y1="23.71" x2="23.71" y2="131.46"/><line class="cls-5" x1="61.79" y1="110.62" x2="32.33" y2="140.08"/><line class="cls-5" x1="140.08" y1="32.33" x2="77.79" y2="94.62"/><line class="cls-5" x1="74.29" y1="115.37" x2="40.96" y2="148.71"/><line class="cls-5" x1="148.71" y1="40.96" x2="94.12" y2="95.54"/><line class="cls-5" x1="90.04" y1="116.87" x2="49.58" y2="157.33"/><line class="cls-5" x1="157.33" y1="49.58" x2="110.58" y2="96.33"/><line class="cls-5" x1="165.96" y1="58.21" x2="58.21" y2="165.96"/><line class="cls-5" x1="163.08" y1="78.33" x2="78.33" y2="163.08"/><line class="cls-5" x1="171.71" y1="86.96" x2="86.96" y2="171.71"/></g><circle class="cls-1" cx="88.01" cy="86.41" r="70"/></g></g></g></svg>