<svg xmlns="http://www.w3.org/2000/svg" xmlns:xlink="http://www.w3.org/1999/xlink" viewBox="0 0 142 181"><defs><style>.cls-1,.cls-2{fill:none;}.cls-2{stroke:#fff;stroke-miterlimit:10;stroke-width:2px;}.cls-3{clip-path:url(#clip-path);}.cls-4{clip-path:url(#clip-path-2);}.cls-5{clip-path:url(#clip-path-3);}.cls-6{fill:#fff;}</style><clipPath id="clip-path"><circle class="cls-1" cx="71" cy="71" r="70"/></clipPath><clipPath id="clip-path-2"><circle class="cls-2" cx="71" cy="71" r="70"/></clipPath><clipPath id="clip-path-3"><rect class="cls-2" x="34" y="64" width="74" height="116" rx="33" ry="33"/></clipPath></defs><title>no_wrinkles</title><g id="Layer_2" data-name="Layer 2"><g id="Home_alternative" data-name="Home alternative"><g class="cls-4"><g class="cls-5"><path class="cls-2" d="M34,100.17C42,92,51,85,55,83a24.25,24.25,0,0,0-5.83,15.33C54.83,93.67,77,82,88,83a85.67,85.67,0,0,0,20,19l2-34L74,55,42,60S28,82,29,83,34,100.17,34,100.17Z"/></g><rect class="cls-2" x="34" y="64" width="74" height="116" rx="33" ry="33"/><path class="cls-2" d="M74.7,107.25a11.48,11.48,0,0,0,19.6,0"/><path class="cls-2" d="M48.7,107.25a11.48,11.48,0,0,0,19.6,0"/><path class="cls-2" d="M77.5,126.5s-4.78,1-5.7,1c-1.08,0-6.3-1-6.3-1"/><circle class="cls-2" cx="34" cy="114" r="6"/><circle class="cls-2" cx="108" cy="114" r="6"/><path class="cls-2" d="M74.71,107.25a11.47,11.47,0,0,1,19.59,0"/><path class="cls-2" d="M48.71,107.25a11.47,11.47,0,0,1,19.59,0"/><circle class="cls-2" cx="58.6" cy="107.22" r="5.08"/><circle class="cls-2" cx="84.61" cy="107.21" r="5.08"/><path class="cls-2" d="M28.76,55.79c-.3,4-2.8,7.22-6,7.72"/><path class="cls-2" d="M28.77,55.79c.31,4,2.81,7.22,6,7.72"/><path class="cls-2" d="M28.77,76.65c.31-6.82,2.81-12.28,6-13.14"/><path class="cls-2" d="M28.76,76.65c-.3-6.82-2.8-12.28-6-13.14"/><path class="cls-2" d="M45.59,40.73c-.24,3.1-2.17,5.58-4.63,6"/><path class="cls-2" d="M45.59,40.73c.24,3.1,2.17,5.58,4.63,6"/><path class="cls-2" d="M45.59,56.88c.24-5.29,2.17-9.51,4.63-10.18"/><path class="cls-2" d="M45.59,56.88c-.24-5.29-2.17-9.51-4.63-10.18"/><path class="cls-2" d="M119.79,63.16c-.41,5.37-3.76,9.67-8,10.35"/><path class="cls-2" d="M119.8,63.16c.41,5.37,3.76,9.67,8,10.35"/><path class="cls-2" d="M119.8,91.12c.41-9.15,3.76-16.46,8-17.61"/><path class="cls-2" d="M119.79,91.12c-.41-9.15-3.76-16.46-8-17.61"/><path class="cls-6" d="M56,23.54l-.86-2.37H51.82L51,23.54H49.5l3.21-8.6h1.52l3.21,8.6ZM54.73,20l-.81-2.33c-.06-.16-.14-.41-.24-.74s-.18-.58-.21-.74A12.88,12.88,0,0,1,53,17.73L52.23,20Z"/><path class="cls-6" d="M62.07,18.9h3.16v4.3a9.17,9.17,0,0,1-1.49.36,10.58,10.58,0,0,1-1.54.1,3.87,3.87,0,0,1-3-1.15,4.65,4.65,0,0,1-1.05-3.25A4.31,4.31,0,0,1,59.34,16a4.49,4.49,0,0,1,3.27-1.16,6.49,6.49,0,0,1,2.55.51l-.5,1.17a4.93,4.93,0,0,0-2.08-.48,2.78,2.78,0,0,0-2.17.86,3.33,3.33,0,0,0-.8,2.35,3.5,3.5,0,0,0,.72,2.39,2.6,2.6,0,0,0,2.07.82,7,7,0,0,0,1.45-.17V20.1H62.07Z"/><path class="cls-6" d="M72.13,23.54H67.28V15h4.85v1.18H68.68v2.33h3.23v1.18H68.68v2.69h3.45Z"/><path class="cls-6" d="M73.63,17.81a.78.78,0,0,1,.87-.89.82.82,0,0,1,.65.24.88.88,0,0,1,.22.65.93.93,0,0,1-.23.66.83.83,0,0,1-.64.24.84.84,0,0,1-.65-.24A.92.92,0,0,1,73.63,17.81Zm0,5a.88.88,0,0,1,.22-.65.83.83,0,0,1,.65-.23.89.89,0,0,1,.65.23,1,1,0,0,1,.22.65.93.93,0,0,1-.23.66.83.83,0,0,1-.64.24.84.84,0,0,1-.65-.24A.92.92,0,0,1,73.63,22.81Z"/><path class="cls-6" d="M74.92,53.91l8.85-19.18H72.13V31.56H87.61v2.51l-8.8,19.84Z"/><path class="cls-6" d="M97.87,39.94a7.67,7.67,0,0,1,5.36,1.79,6.27,6.27,0,0,1,2,4.88,7.12,7.12,0,0,1-2.24,5.6,9.25,9.25,0,0,1-6.38,2A12,12,0,0,1,90.69,53V49.75a10.91,10.91,0,0,0,2.85,1.09,13.15,13.15,0,0,0,3,.38,5.53,5.53,0,0,0,3.71-1.09A4,4,0,0,0,101.5,47c0-2.68-1.71-4-5.12-4a14.4,14.4,0,0,0-1.77.14c-.71.1-1.32.21-1.85.33l-1.61-.95L92,31.53h11.63v3.2H95.17l-.5,5.54L96,40.06A12.49,12.49,0,0,1,97.87,39.94Z"/></g><circle class="cls-2" cx="71" cy="71" r="70"/></g></g></svg>