<svg xmlns="http://www.w3.org/2000/svg" xmlns:xlink="http://www.w3.org/1999/xlink" viewBox="0 0 142 177.41"><defs><style>.cls-1{fill:none;stroke:#fff;stroke-miterlimit:10;stroke-width:2px;}.cls-2{clip-path:url(#clip-path);}</style><clipPath id="clip-path"><circle class="cls-1" cx="71" cy="71" r="70"/></clipPath></defs><title>photographic_memory</title><g id="Layer_2" data-name="Layer 2"><g id="Home_alternative" data-name="Home alternative"><g id="photographic_memory"><g class="cls-2"><path class="cls-1" d="M71.22,35.59h9.71c0,6.18,0,24.59,0,34.3,10.93,0,27.42.09,40.08.09v66.37a40.18,40.18,0,0,1-40.06,40.06H71.22a40.18,40.18,0,0,1-40.07-40.06V75.65A40.18,40.18,0,0,1,71.22,35.59Z"/><path class="cls-1" d="M81.23,88.09a13.93,13.93,0,0,0,23.79,0"/><line class="cls-1" x1="75.5" y1="110.5" x2="67.5" y2="110.5"/><path class="cls-1" d="M31.15,103.57a7.29,7.29,0,0,1,0-14.57"/><circle class="cls-1" cx="120.99" cy="96.29" r="7.28"/><path class="cls-1" d="M81.24,88.08a13.94,13.94,0,0,1,23.79,0"/><circle class="cls-1" cx="56.06" cy="88.03" r="11.16"/><circle class="cls-1" cx="93.25" cy="88.05" r="6.17"/><rect class="cls-1" x="31.14" y="69.89" width="49.77" height="33.99"/><circle class="cls-1" cx="56.06" cy="88.03" r="6.96"/><rect class="cls-1" x="48.06" y="65.75" width="15.67" height="4.17"/><rect class="cls-1" x="71.06" y="66.72" width="6" height="3.2"/><rect class="cls-1" x="35.1" y="66.72" width="6" height="3.2"/><path class="cls-1" d="M81.07,40.84c4.41,0,8.91,1,10.41,3.25a5.86,5.86,0,0,1,8.58,3.16c3.67-.66,6.17,1,7.67,5.34a7.8,7.8,0,0,1,6.5,7.75c4.5,2,4.75,9,4.75,9"/><path class="cls-1" d="M80.92,50.59c2.14,2.5,4.47,2.16,6.81,1.83,1.33,2.67,4.16,4.83,7.16,4.67-.33,2.33,2.67,4,5.84,4"/><path class="cls-1" d="M90.06,63.75a5.47,5.47,0,0,1,3.66,6.16"/><path class="cls-1" d="M106.73,60.42c2.66,1.5,3.33,3.33,3,5.33,2,1.17,2,2.76,2,4.22"/><line class="cls-1" x1="16.48" y1="56.34" x2="24.98" y2="62.59"/><line class="cls-1" x1="13.73" y1="69.09" x2="23.48" y2="71"/><line class="cls-1" x1="15.48" y1="81.59" x2="23.73" y2="80.09"/><line class="cls-1" x1="46.19" y1="83.69" x2="31.26" y2="83.69"/><line class="cls-1" x1="81.19" y1="83.69" x2="66.18" y2="83.69"/></g><circle class="cls-1" cx="71" cy="71" r="70"/></g></g></g></svg>