<svg xmlns="http://www.w3.org/2000/svg" xmlns:xlink="http://www.w3.org/1999/xlink" viewBox="0 0 164.44 184.87"><defs><style>.cls-1,.cls-2,.cls-5{fill:none;}.cls-2,.cls-5{stroke:#fff;stroke-miterlimit:10;stroke-width:2px;}.cls-3{clip-path:url(#clip-path);}.cls-4{clip-path:url(#clip-path-2);}.cls-5{opacity:0.6;}.cls-6{clip-path:url(#clip-path-3);}</style><clipPath id="clip-path"><circle class="cls-1" cx="71" cy="74.87" r="70"/></clipPath><clipPath id="clip-path-2"><circle class="cls-2" cx="71" cy="74.87" r="70"/></clipPath><clipPath id="clip-path-3"><rect class="cls-2" x="34" y="67.87" width="74" height="116" rx="33" ry="33"/></clipPath></defs><title>photosynthesise_sunlight</title><g id="Layer_2" data-name="Layer 2"><g id="Home_alternative" data-name="Home alternative"><g id="photosynthesis"><g class="cls-4"><polygon class="cls-5" points="163 81.86 128.99 126.44 22.92 20.38 42.01 1.29 163 81.86"/><polygon class="cls-5" points="106.79 139.21 86.73 161.06 5.36 35.04 17.08 27.48 106.79 139.21"/><g class="cls-6"><path class="cls-2" d="M34,104c8-8.16,17-15.16,21-17.16a24.23,24.23,0,0,0-5.83,15.33C54.83,97.53,77,85.87,88,86.87a85.67,85.67,0,0,0,20,19l2-34-36-13-32,5s-14,22-13,23S34,104,34,104Z"/></g><rect class="cls-2" x="34" y="67.87" width="74" height="116" rx="33" ry="33"/><line class="cls-2" x1="71" y1="50.87" x2="71" y2="70.87"/><ellipse class="cls-2" cx="77.5" cy="45.37" rx="9.8" ry="5.5" transform="translate(-9.38 68.09) rotate(-45)"/><path class="cls-2" d="M74.7,111.12a11.48,11.48,0,0,0,19.6,0"/><path class="cls-2" d="M48.7,111.12a11.48,11.48,0,0,0,19.6,0"/><ellipse class="cls-2" cx="65.14" cy="46.65" rx="4.34" ry="7.73" transform="translate(-13.91 59.73) rotate(-45)"/><line class="cls-2" x1="75.5" y1="130.37" x2="67.5" y2="130.37"/><circle class="cls-2" cx="34" cy="117.87" r="6"/><circle class="cls-2" cx="108" cy="117.87" r="6"/></g><circle class="cls-2" cx="71" cy="74.87" r="70"/></g></g></g></svg>