<svg xmlns="http://www.w3.org/2000/svg" xmlns:xlink="http://www.w3.org/1999/xlink" viewBox="0 0 142 147.84"><defs><style>.cls-1,.cls-2,.cls-3,.cls-8{fill:none;}.cls-2,.cls-3,.cls-8{stroke:#fff;stroke-miterlimit:10;}.cls-2{stroke-width:2px;}.cls-4{clip-path:url(#clip-path);}.cls-5{clip-path:url(#clip-path-2);}.cls-6{clip-path:url(#clip-path-3);}.cls-7{fill:#fff;}.cls-8{stroke-width:0.5px;}</style><clipPath id="clip-path"><circle class="cls-1" cx="71" cy="71" r="70"/></clipPath><clipPath id="clip-path-2"><circle class="cls-2" cx="71" cy="71" r="70"/></clipPath><clipPath id="clip-path-3"><rect class="cls-3" x="64.25" y="85.29" width="13.9" height="16.91" rx="6.95" ry="6.95"/></clipPath></defs><title>superhuman_strength</title><g id="Layer_2" data-name="Layer 2"><g id="Home_alternative" data-name="Home alternative"><g id="superhuman_strength"><g class="cls-5"><g class="cls-6"><path class="cls-3" d="M64.25,92.08a20,20,0,0,1,4-3.22,4.54,4.54,0,0,0-1.1,2.88c1.07-.88,5.23-3.07,7.3-2.88a16.18,16.18,0,0,0,3.76,3.57L78.53,86l-6.76-2.45-6,.94s-2.63,4.14-2.45,4.33A28.38,28.38,0,0,1,64.25,92.08Z"/></g><rect class="cls-3" x="64.25" y="85.29" width="13.9" height="16.91" rx="6.95" ry="6.95"/><line class="cls-3" x1="69.63" y1="97.03" x2="72.96" y2="97.03"/><circle class="cls-3" cx="64.25" cy="94.68" r="1.13"/><circle class="cls-3" cx="78.16" cy="94.68" r="1.13"/><path class="cls-3" d="M79.82,79s-.61,18.36-.8,21.4c-.79-1-.92-.85-2-1.51"/><path class="cls-3" d="M65.21,98.74a9.17,9.17,0,0,0-3,2.58c-6.28.63-10.09,4.36-10.16,9.76a6.58,6.58,0,0,0,2,4.68,9.45,9.45,0,0,0,5.82,2.71,11.51,11.51,0,0,0,3.62,5.91L55.74,145l2.19.83,7.54-20A11.41,11.41,0,0,0,71,127.2a11.23,11.23,0,0,0,3.68-.62l-1.87,20.5,2.32.21,2-21.89a11.47,11.47,0,0,0,5.34-9.66v-7.11a11.31,11.31,0,0,0-.87-4.36V79.34"/><path class="cls-3" d="M55.48,114.35A4.64,4.64,0,0,1,54,111.1c0-3.93,2.25-6.33,6.53-7.16a11.32,11.32,0,0,0-1,4.69v7.11c0,.23,0,.45,0,.68A7.63,7.63,0,0,1,55.48,114.35Z"/><path class="cls-2" d="M81.6,79.34l50.87,8s7-27.92-18-32.89c-4.27-9.79-8.91-24.16-21.73-30.42-2.07-1-22.6-3.83-31.44-3.69C45.33,20.65,30.69,26,18.87,54c-5.41,2.54-5.74,8.09-6.38,14.45L81.6,79.34"/><circle class="cls-2" cx="36.09" cy="71.86" r="11.88"/><circle class="cls-2" cx="115.95" cy="84.7" r="11.88"/><path class="cls-3" d="M34.62,42.67l70.76,10.95C105,44.36,94.56,30,90.84,27.81s-29.09-4.2-37.68-2.34C48.26,26.53,37.61,35.32,34.62,42.67Z"/><polyline class="cls-3" points="61.73 24.75 56.14 69.69 101.88 77.15 105.39 53.62"/><path class="cls-3" d="M24.21,43.46c2.34.69,1.93,4.55,1,7s-2.83,3.75-5.9,3.26"/><circle class="cls-3" cx="36.09" cy="71.86" r="8.4"/><circle class="cls-3" cx="115.95" cy="84.7" r="8.4"/><rect class="cls-3" x="122.49" y="62.77" width="5.92" height="8.5" rx="2.96" ry="2.96" transform="translate(-16.39 56.52) rotate(-23.88)"/><line class="cls-3" x1="59.53" y1="115.74" x2="82.47" y2="115.74"/><line class="cls-3" x1="71.21" y1="102.2" x2="71.21" y2="115.74"/><path class="cls-7" d="M73.83,105.71a.75.75,0,0,0,0-1.5.75.75,0,0,0,0,1.5Z"/><path class="cls-7" d="M73.83,109.09a.75.75,0,0,0,0-1.5.75.75,0,0,0,0,1.5Z"/><path class="cls-7" d="M73.83,112.46a.75.75,0,0,0,0-1.5.75.75,0,0,0,0,1.5Z"/><line class="cls-8" x1="30.28" y1="86.41" x2="30.28" y2="97.64"/><line class="cls-8" x1="33.28" y1="87.6" x2="33.28" y2="98.84"/><line class="cls-8" x1="36.62" y1="86.23" x2="36.62" y2="101.9"/><line class="cls-8" x1="110.45" y1="100.03" x2="110.45" y2="109.8"/><line class="cls-8" x1="113.45" y1="101.07" x2="113.45" y2="110.84"/></g><circle class="cls-2" cx="71" cy="71" r="70"/></g></g></g></svg>