<svg xmlns="http://www.w3.org/2000/svg" xmlns:xlink="http://www.w3.org/1999/xlink" viewBox="0 0 148.31 194.28"><defs><style>.cls-1,.cls-2,.cls-3{fill:none;}.cls-2,.cls-3{stroke:#fff;stroke-miterlimit:10;stroke-width:2px;}.cls-2{opacity:0.6;}.cls-4{clip-path:url(#clip-path);}.cls-5{clip-path:url(#clip-path-2);}.cls-6{clip-path:url(#clip-path-3);}.cls-7{clip-path:url(#clip-path-4);}.cls-8{clip-path:url(#clip-path-5);}.cls-9{clip-path:url(#clip-path-6);}.cls-10{clip-path:url(#clip-path-7);}</style><clipPath id="clip-path"><circle class="cls-1" cx="77" cy="84.28" r="70"/></clipPath><clipPath id="clip-path-2"><circle class="cls-3" cx="77" cy="84.28" r="70"/></clipPath><clipPath id="clip-path-3"><rect class="cls-3" x="40" y="77.28" width="74" height="116" rx="33" ry="33"/></clipPath><clipPath id="clip-path-4"><circle class="cls-2" cx="113.61" cy="51.36" r="12.11"/></clipPath><clipPath id="clip-path-5"><circle class="cls-2" cx="27.68" cy="76.76" r="7.51"/></clipPath><clipPath id="clip-path-6"><circle class="cls-2" cx="139.49" cy="108.86" r="7.51"/></clipPath><clipPath id="clip-path-7"><circle class="cls-2" cx="82.61" cy="14.28" r="12.11"/></clipPath></defs><title>superhuman_colour_vision</title><g id="Layer_2" data-name="Layer 2"><g id="Home_alternative" data-name="Home alternative"><g id="superhuman_colour_vision"><g class="cls-5"><g class="cls-6"><path class="cls-3" d="M40,113.45c8-8.17,17-15.17,21-17.17a24.25,24.25,0,0,0-5.83,15.33C60.83,107,83,95.28,94,96.28a85.67,85.67,0,0,0,20,19l2-34-36-13-32,5s-14,22-13,23S40,113.45,40,113.45Z"/></g><rect class="cls-3" x="40" y="77.28" width="74" height="116" rx="33" ry="33"/><path class="cls-3" d="M80.7,120.53a11.48,11.48,0,0,0,19.6,0"/><path class="cls-3" d="M54.7,120.53a11.48,11.48,0,0,0,19.6,0"/><line class="cls-3" x1="81.5" y1="139.78" x2="73.5" y2="139.78"/><circle class="cls-3" cx="40" cy="127.28" r="6"/><circle class="cls-3" cx="114" cy="127.28" r="6"/><path class="cls-3" d="M80.73,120.52a11.48,11.48,0,0,1,19.6,0"/><path class="cls-3" d="M54.73,120.52a11.48,11.48,0,0,1,19.6,0"/><path class="cls-3" d="M95,115.93a5,5,0,0,1,.69,2.55,5.09,5.09,0,1,1-9.41-2.66"/><path class="cls-3" d="M69,115.93a5,5,0,0,1,.69,2.55,5.08,5.08,0,1,1-10.16,0,5,5,0,0,1,.75-2.66"/><circle class="cls-2" cx="46.58" cy="51.78" r="9.25"/><circle class="cls-2" cx="36.33" cy="21.37" r="9.25"/><circle class="cls-2" cx="12.58" cy="112.27" r="11.58"/><circle class="cls-2" cx="63.22" cy="54.23" r="14.98"/><circle class="cls-2" cx="121.61" cy="59.86" r="10.24"/><path class="cls-2" d="M108.25,91.77a10.24,10.24,0,1,1,7.61,17.09,10.39,10.39,0,0,1-1.68-.14"/><g class="cls-7"><line class="cls-2" x1="114.67" y1="37.78" x2="99.21" y2="53.24"/><line class="cls-2" x1="120.65" y1="40.22" x2="101.74" y2="59.14"/><line class="cls-2" x1="124.27" y1="45.02" x2="106.62" y2="62.67"/><line class="cls-2" x1="128" y1="48.75" x2="110.35" y2="66.41"/></g><circle class="cls-2" cx="113.61" cy="51.36" r="12.11"/><g class="cls-8"><line class="cls-2" x1="29.38" y1="69.25" x2="19.78" y2="78.85"/><line class="cls-2" x1="33.09" y1="71.23" x2="21.35" y2="82.97"/><line class="cls-2" x1="35.8" y1="74.46" x2="24.84" y2="85.41"/></g><circle class="cls-2" cx="27.68" cy="76.76" r="7.51"/><g class="cls-9"><line class="cls-2" x1="141.18" y1="101.34" x2="131.59" y2="110.94"/><line class="cls-2" x1="144.89" y1="103.32" x2="133.15" y2="115.06"/><line class="cls-2" x1="147.6" y1="106.55" x2="136.64" y2="117.5"/></g><circle class="cls-2" cx="139.49" cy="108.86" r="7.51"/><g class="cls-10"><line class="cls-2" x1="83.67" y1="0.71" x2="68.21" y2="16.17"/><line class="cls-2" x1="89.65" y1="3.15" x2="70.74" y2="22.06"/><line class="cls-2" x1="93.27" y1="7.94" x2="75.62" y2="25.6"/><line class="cls-2" x1="97" y1="11.68" x2="79.35" y2="29.33"/></g><circle class="cls-2" cx="82.61" cy="14.28" r="12.11"/></g><circle class="cls-3" cx="77" cy="84.28" r="70"/></g></g></g></svg>