<svg xmlns="http://www.w3.org/2000/svg" xmlns:xlink="http://www.w3.org/1999/xlink" viewBox="0 0 189.46 173.65"><defs><style>.cls-1,.cls-2,.cls-7{fill:none;}.cls-2,.cls-7{stroke:#fff;stroke-miterlimit:10;stroke-width:2px;}.cls-3{clip-path:url(#clip-path);}.cls-4{clip-path:url(#clip-path-2);}.cls-5{clip-path:url(#clip-path-3);}.cls-6,.cls-7{opacity:0.6;}</style><clipPath id="clip-path"><circle class="cls-1" cx="103.78" cy="71" r="70"/></clipPath><clipPath id="clip-path-2"><circle class="cls-2" cx="103.78" cy="71" r="70"/></clipPath><clipPath id="clip-path-3"><rect class="cls-2" x="12.23" y="56.34" width="74" height="116" rx="33" ry="33" transform="translate(-19.11 10.29) rotate(-10)"/></clipPath></defs><title>superhuman_vision</title><g id="Layer_2" data-name="Layer 2"><g id="Home_alternative" data-name="Home alternative"><g id="superhuman_vision"><g class="cls-4"><g class="cls-5"><path class="cls-2" d="M9,99.26c6.46-9.43,14.11-17.89,17.7-20.55a24.25,24.25,0,0,0-3.08,16.11C28.39,89.24,48.19,73.9,59.2,73a85.74,85.74,0,0,0,23,15.24L78.26,54.39,40.55,47.83,9.9,58.32s-10,24.09-8.81,24.9S9,99.26,9,99.26Z"/><path class="cls-2" d="M71.38,103.76a11.47,11.47,0,0,0,18.84-5.38"/><path class="cls-2" d="M71.38,103.77a11.47,11.47,0,0,1,18.84-5.38"/><circle class="cls-2" cx="80.88" cy="101.02" r="5.08"/><path class="cls-2" d="M42.36,111.3a11.48,11.48,0,0,0,18.84-5.38"/><path class="cls-2" d="M42.36,111.3a11.47,11.47,0,0,1,18.84-5.38"/><circle class="cls-2" cx="51.87" cy="108.55" r="5.08"/></g><rect class="cls-2" x="12.23" y="56.34" width="74" height="116" rx="33" ry="33" transform="translate(-19.11 10.29) rotate(-10)"/><g class="cls-6"><line class="cls-2" x1="139.89" y1="140.9" x2="52.96" y2="113.89"/><line class="cls-2" x1="49.78" y1="104.12" x2="138.96" y2="25"/><ellipse class="cls-2" cx="139.44" cy="83.5" rx="15.2" ry="58.5"/></g><line class="cls-7" x1="172.6" y1="133.31" x2="85.67" y2="106.3"/><line class="cls-7" x1="82.5" y1="96.53" x2="171.68" y2="17.41"/><ellipse class="cls-7" cx="172.16" cy="75.91" rx="16.3" ry="58.5"/></g><circle class="cls-2" cx="103.78" cy="71" r="70"/></g></g></g></svg>