<svg xmlns="http://www.w3.org/2000/svg" viewBox="0 0 262.6 317.75"><defs><style>.cls-1{fill:none;stroke:#3fa9f5;stroke-miterlimit:10;stroke-width:5px;}.cls-2{fill:#3fa9f5;}</style></defs><title>avatar-1</title><g id="Layer_2" data-name="Layer 2"><g id="quiz"><path id="side-face" class="cls-1" d="M41.1,315.53s30.8-16,12.8-67c-6.61-18.72-25.3-40-25.3-67.5v-52.5C28.6,70.51,76.08,23,134.1,23h0c42.47,0,76.43,33.62,99,81.5,8.27,17.54,27,34.56,27,56l-22,5,11,27L238.92,212l.68,27.51c0,16-8.74,27.83-66.76,27.83,0,0-4.09,35.17.52,44.5"/><ellipse id="eye" class="cls-1" cx="211.6" cy="131.53" rx="3.5" ry="7"/><path id="eyebrow-straight" class="cls-1" d="M181.58,110.83c7.51-3.47,30.1-2.63,42.77,0"/><path id="hair-default" class="cls-2" d="M79.63,28.7C86.37,9.36,129.81-.64,141.35,0c-12.45,8-10.9,8.05-10.9,8.05s43.8-9.73,81.65,20.62C229.57,42.7,241.57,76,241.57,76s-16.93-4.67-24.47-6c-2.43,12.82-26.87,24.33-40.2,33-4.8-13.76-12.5-17.5-12.5-17.5s-31,62.72-41,85C120.73,154.62,111,120.11,111,120.11S60.23,107.93,62.23,152c.73,16.07,18.87,49.38,30.08,77.38-31.85-9-36.64-22.82-37.87-18.67-5.36,18-12.16,31.82-16.21,37.84-12.63-29.17-26-75.17-26.66-90.12C4.23,170.53.23,170.53.23,170.53S-4.21,84.44,25.6,68C16.51,64,7,60.18,7,60.18S46.36,27.36,79.63,28.7Z"/><g id="ear-1"><path class="cls-1" d="M107.1,134.53c-9.5-9.5-33-2-33,12s9,40,23,40c9,0,10-6,10-6"/><path class="cls-1" d="M96.1,152.53c-9.55-4.29-9,18,2,18,8,0,7-6,7-6"/><path class="cls-1" d="M81.1,144.53c5-5,17-8,21-3s-1,15-8,16"/></g></g></g></svg>