<svg xmlns="http://www.w3.org/2000/svg" viewBox="0 0 266 300.72"><defs><style>.cls-1{fill:none;stroke:#3fa9f5;stroke-miterlimit:10;stroke-width:5px;}.cls-2{fill:#3fa9f5;}</style></defs><title>avatar-3</title><g id="Layer_2" data-name="Layer 2"><g id="quiz"><path id="side-face" class="cls-1" d="M44.5,298.5s30.8-16,12.8-67C50.69,212.78,32,191.5,32,164V111.5C32,53.47,79.47,6,137.5,6h0c42.47,0,76.42,33.62,99,81.5,8.27,17.54,27,34.55,27,56l-22,5,11,27L242.32,195,243,222.5c0,16-8.74,27.83-66.77,27.83,0,0-4.08,35.17.53,44.5"/><ellipse id="eye" class="cls-1" cx="215" cy="114.5" rx="3.5" ry="7"/><path id="eyebrow-straight" class="cls-1" d="M185,93.8c7.51-3.47,30.1-2.63,42.77,0"/><path id="hair-female" class="cls-2" d="M138,0c83,0,100.29,48.32,105.67,73.93-42,0-91.17,13.07-91.17,13.07v89.5l-34-18-5.85-52.65s-38.35.87-42.85,25.37C65.33,155.56,74.65,167,86,193c12.47,28.5,32.78,48.5,32.78,48.5l-74.3,7S0,198,0,117,73,0,138,0Z"/><g id="ear-1"><path class="cls-1" d="M110.5,117.5c-9.5-9.5-33-2-33,12s9,40,23,40c9,0,10-6,10-6"/><path class="cls-1" d="M99.5,135.5c-9.55-4.29-9,18,2,18,8,0,7-6,7-6"/><path class="cls-1" d="M84.5,127.5c5-5,17-8,21-3s-1,15-8,16"/></g></g></g></svg>