<svg xmlns="http://www.w3.org/2000/svg" viewBox="0 0 270.14 301.03"><defs><style>.cls-1{fill:none;stroke:#3fa9f5;stroke-miterlimit:10;stroke-width:5px;}.cls-2{fill:#3fa9f5;}</style></defs><title>avatar-2</title><g id="Layer_2" data-name="Layer 2"><g id="quiz"><path id="side-face" class="cls-1" d="M48.64,298.81s30.8-16,12.8-67c-6.61-18.72-25.3-40-25.3-67.5v-52.5c0-58,47.47-105.5,105.5-105.5h0c42.47,0,76.42,33.62,99,81.5,8.27,17.54,27,34.56,27,56l-22,5,11,27L246.46,195.3l.68,27.51c0,16-8.74,27.83-66.77,27.83,0,0-4.08,35.17.53,44.5"/><ellipse id="eye" class="cls-1" cx="219.14" cy="114.81" rx="3.5" ry="7"/><path id="eyebrow-straight" class="cls-1" d="M189.12,94.11c7.51-3.47,30.1-2.63,42.77,0"/><path id="hair-male" class="cls-2" d="M141,.31c73.5-3.67,73.62,26.5,98.42,18.5-11.5,12-21.42,22.58-35.42,20.5C197.64,48,166.1,53.37,154.77,64c-6.93,6.48,3.33,21.33,3.33,21.33l-20.66,28.25-8.7,31L115,100.31s-41,4-45.5,28.5c-4.47,24.34-15,103-15,103S29.43,159,19.94,144.54c-16.5-9.28-24.5-22.73-17.26-58.23C16.89,16.67,76.1,3.55,141,.31Z"/><g id="ear-1"><path class="cls-1" d="M114.64,117.81c-9.5-9.5-33-2-33,12s9,40,23,40c9,0,10-6,10-6"/><path class="cls-1" d="M103.64,135.81c-9.55-4.29-9,18,2,18,8,0,7-6,7-6"/><path class="cls-1" d="M88.64,127.81c5-5,17-8,21-3s-1,15-8,16"/></g></g></g></svg>