<svg xmlns="http://www.w3.org/2000/svg" viewBox="0 0 266 300.72">
    <defs><style>
        .cls-1{fill:none;stroke:#3fa9f5;stroke-miterlimit:10;stroke-width:5px;}
        .cls-2{fill:#3fa9f5;}
        .invisible {
    visibility: hidden;
    opacity: 0;
}</style></defs>
    
        <path id="side-face" class="visible cls-1" d="M44.5,298.5s30.8-16,12.8-67C50.69,212.78,32,191.5,32,164V111.5C32,53.47,79.47,6,137.5,6h0c42.47,0,76.42,33.62,99,81.5,8.27,17.54,27,34.55,27,56l-22,5,11,27L242.32,195,243,222.5c0,16-8.74,27.83-66.77,27.83,0,0-4.08,35.17.53,44.5"/>
        
        <ellipse id="eye" class="visible cls-1" cx="215" cy="114.5" rx="3.5" ry="7"/>
        
        <path id="eyebrow-straight" class="cls-1" d="M185,93.8c7.51-3.47,30.1-2.63,42.77,0"/>
        <g id="eyebrow-none" class="">
        <path class="cls-2" d="M193.64,97.5a1.5,1.5,0,1,0-1.5-1.5A1.5,1.5,0,0,0,193.64,97.5Z"/>
        <path class="cls-2" d="M203.82,93.58a1.5,1.5,0,1,0-1.5-1.5A1.5,1.5,0,0,0,203.82,93.58Z"/>
        <path class="cls-2" d="M216.19,93.58a1.5,1.5,0,1,0-1.5-1.5A1.5,1.5,0,0,0,216.19,93.58Z"/>
        <path class="cls-2" d="M226.63,97.4a1.5,1.5,0,1,0-1.5-1.5A1.5,1.5,0,0,0,226.63,97.4Z"/></g>
    
        <path id="hair-female" class="cls-2 invisible" d="M138,0c83,0,100.29,48.32,105.67,73.93-42,0-91.17,13.07-91.17,13.07v89.5l-34-18-5.85-52.65s-38.35.87-42.85,25.37C65.33,155.56,74.65,167,86,193c12.47,28.5,32.78,48.5,32.78,48.5l-74.3,7S0,198,0,117,73,0,138,0Z"/>
        <path id="hair-male" class="cls-2 invisible" d="M141,17c73.5-3.67,73.62,26.5,98.42,18.5C227.94,47.53,218,58.11,204,56c-6.38,8.69-37.92,14.07-49.25,24.67C147.84,87.18,158.1,102,158.1,102l-20.66,28.25-8.7,31L115,117s-41,4-45.5,28.5c-4.47,24.34-15,103-15,103s-25.09-72.85-34.58-87.27C3.44,152-4.56,138.53,2.68,103,16.89,33.4,76.1,20.27,141,17Z"/>
        <path id="hair-default" class="cls-2" d="M87.16,28.7C93.9,9.36,137.34-.64,148.89,0,136.44,8,138,8.08,138,8.08s43.79-9.73,81.65,20.62C237.1,42.7,249.1,76,249.1,76s-16.92-4.67-24.46-6c-2.43,12.82-26.87,24.33-40.2,33-4.8-13.76-12.5-17.5-12.5-17.5s-31,62.72-41,85c-2.67-15.91-12.44-50.42-12.44-50.42S67.77,107.93,69.77,152c.73,16.07,18.87,49.38,30.08,77.38C68,220.36,63.21,206.54,62,210.69c-5.36,18-12.16,31.82-16.21,37.84-12.63-29.17-26-75.17-26.67-90.12-7.33,12.12-11.33,12.12-11.33,12.12S3.33,84.44,33.14,68c-9.09-4-18.6-7.85-18.6-7.85S53.89,27.36,87.16,28.7Z"/>
        
        <g id="ear-1"><path class="cls-1" d="M110.5,117.5c-9.5-9.5-33-2-33,12s9,40,23,40c9,0,10-6,10-6"/><path class="cls-1" d="M99.5,135.5c-9.55-4.29-9,18,2,18,8,0,7-6,7-6"/><path class="cls-1" d="M84.5,127.5c5-5,17-8,21-3s-1,15-8,16"/></g>
        <g id="ear-2" class="invisible"><path class="cls-1" d="M110.56,118.54C89.24,105.4,73.73,126,73.73,139.33c0,6.68,7,12.88,12.12,18.42s8.48,10.43,15.16,10.43c8.59,0,9.55-5.73,9.55-5.73"/><path class="cls-1" d="M100.06,135.72c-9.12-4.1-8.59,17.18,1.91,17.18,7.63,0,6.68-5.72,6.68-5.72"/><path class="cls-1" d="M98.15,140.49c6.68-1,11.45-10.5,7.64-15.27s-15.38-2-20.05,2.87-7.17,7.85-4.26,12.21"/></g>
        <g id="ear-3" class="invisible"><path class="cls-1" d="M104.45,121.3c-3.79-3.78-6.15-8.59-12.11-8.78-15-.48-12.6,10.64-12.6,18.42,0,6.69,1,23.67,4.36,28.12s4.13,11.88,10.81,11.88c8.59,0,9.54-5.73,9.54-5.73"/><path class="cls-1" d="M94,138.49c-9.12-4.1-8.33,14.87,1.91,17.18,8.6,1.94,10.54-4.36,10.54-4.36"/><path class="cls-1" d="M86,121.73c4.78-4.77,9.76,1.53,13.58,6.31S98.73,142.3,92,143.26"/></g>
        <g id="ear-4" class="invisible"><path class="cls-1" d="M110.5,119.59c-4.53-4.53-10.21-10.62-17-8.3-3,1-7.74,5.67-11.15,8.25-4.19,3.17-10.18,6.49-10.18,10.18,0,10,5.07,16.26,15,24.24,3.32,2.66,4.09,14.5,7.27,15.51,9.21,2.91,16-6,16-6"/><path class="cls-1" d="M100,136.77c-9.12-4.1-8.59,17.18,1.91,17.18,7.64,0,6.68-5.72,6.68-5.72"/><path class="cls-1" d="M98.09,141.55c6.68-1,9.45-14.82,5.63-19.59s-15.1-1.38-19.87,3.39S77.55,132.14,80,136"/></g>
        <g id="ear-5" class="invisible"><path class="cls-1" d="M107.28,119.62c-9.07-9.07-31.5-1.91-31.5,11.46,0,6-1.23,15,1.93,22.42,3.83,8.93,15.47,16,22.79,16,8.59,0,8.24-10.18,8.24-10.18"/><path class="cls-1" d="M97.68,135.45c-8.17-3.67-7.7,15.39,1.71,15.39,6.83,0,6-5.13,6-5.13"/><path class="cls-1" d="M84.86,128.61c4.27-4.27,14.53-6.84,18-2.56S102,138.87,96,139.72"/></g>

</svg>