<svg xmlns="http://www.w3.org/2000/svg" viewBox="0 0 83.46 127.26"><defs><style>.cls-1{fill:none;stroke:#3fa9f5;stroke-miterlimit:10;stroke-width:5px;}</style></defs><title>ear-3_1</title><g id="Layer_2" data-name="Layer 2"><g id="Home_1" data-name="Home 1"><path class="cls-1" d="M81.48,20.67c-9.36-9.35-21.07-21.91-35-17.11-6.23,2.15-16,11.69-23,17-8.64,6.54-21,13.39-21,21,0,20.67,10.45,33.54,31,50,6.85,5.48,8.43,29.92,15,32,19,6,33-12.32,33-12.32"/><path class="cls-1" d="M59.82,56.11C41,47.66,42.1,91.55,63.75,91.55c15.76,0,13.79-11.81,13.79-11.81"/><path class="cls-1" d="M55.88,66c13.78-2,19.5-30.56,11.62-40.4s-31.16-2.85-41,7c-10,10-13,14-8,22"/></g></g></svg>