<svg xmlns="http://www.w3.org/2000/svg" viewBox="0 0 30.72 30.72"><defs><style>.cls-1{fill:#fff;}</style></defs><title>fb</title><g id="Layer_2" data-name="Layer 2"><g id="quiz_result" data-name="quiz result"><path id="fb" class="cls-1" d="M21.49,0H9.23A9.25,9.25,0,0,0,0,9.23V21.49a9.26,9.26,0,0,0,9.23,9.23h5.43V19.49H12.15V15.41h2.51V12.19c0-3,1.61-4.59,5.19-4.59h3.33v4.19h-2.6c-.92,0-1.11.37-1.11,1.32v2.3h3.71l-.36,4H19.47V30.72h2a9.27,9.27,0,0,0,9.23-9.23V9.23A9.26,9.26,0,0,0,21.49,0Z"/></g></g></svg>