<svg xmlns="http://www.w3.org/2000/svg" viewBox="0 0 27.17 31.09"><defs><style>.cls-1{fill:none;stroke:#fdc676;stroke-miterlimit:10;}</style></defs><title>float-3</title><g id="Layer_2" data-name="Layer 2"><g id="Home_alternative" data-name="Home alternative"><path id="float-3" class="cls-1" d="M12.58,27.31c.63-1.8,3.24-7.74,3.5-9.93a5.61,5.61,0,0,0,0-1.61,5.53,5.53,0,0,0,1-.37c1.79-.81,6.11-4.63,7.47-5.66s2.62-2.62,1.86-3.55A2,2,0,0,0,24,5.86c-.33.22-2.22,1.8-4.24,3.34-1.09.85-2.23,1.68-3.07,2.29.32-1,.77-2.32,1.24-3.63.86-2.38,1.79-4.67,1.9-5.05A2,2,0,0,0,18.74.57c-1.11-.44-2.25,1.24-2.82,2.85S13,10.3,12.81,12.26a5.35,5.35,0,0,0,0,1.11,5.33,5.33,0,0,0-1.54.48c-2,.91-6.87,5.2-8.4,6.36S-.1,23.15.76,24.2a2.22,2.22,0,0,0,2.76.37c.37-.25,2.5-2,4.76-3.76,1.24-.95,2.52-1.89,3.46-2.57-.36,1.11-.87,2.61-1.39,4.08-1,2.68-2,5.25-2.14,5.68a2.21,2.21,0,0,0,1.2,2.51C10.66,31,11.94,29.12,12.58,27.31Z"/></g></g></svg>