<svg xmlns="http://www.w3.org/2000/svg" viewBox="0 0 47.67 72.84"><defs><style>.cls-1{fill:#fdc676;}.cls-2{fill:#ee757b;}.cls-3{fill:none;stroke:#fdc676;stroke-miterlimit:10;}</style></defs><title>float-10</title><g id="Layer_2" data-name="Layer 2"><g id="Home_alternative" data-name="Home alternative"><g id="float-10"><path class="cls-1" d="M25.7,17.38a7.49,7.49,0,0,0,.39,1.22A13.61,13.61,0,0,0,32,24.9c-3.61,1.57-5.86,4.22-6.46,7.62-1.66-2.18-3.79-3.87-5.93-3.87a3.44,3.44,0,0,0-.46,0,5.78,5.78,0,0,0-.56-2.26,9.54,9.54,0,0,0-2.67-3.34A4.88,4.88,0,0,0,18.57,21a5.28,5.28,0,0,0,.7-2.49,3.18,3.18,0,0,0,2.23.72h1.17a4.08,4.08,0,0,0,3-1.84m.72-3.31s-1.64,4.15-3.75,4.15H21.5c-1.28,0-1.88-.22-4.2-4.13,0,0,4,8.16-4.21,8.52,2.76,1,6,4.62,4.81,7.62a2.86,2.86,0,0,1,1.71-.56c2.54,0,5.36,3.2,6.87,6.31-.78-5.87,2.82-9.83,9.17-11.15-4.55-.12-7.79-4.56-8.63-6.59a9.41,9.41,0,0,1-.6-4.15Z"/><circle class="cls-2" cx="23.2" cy="24.34" r="2.79"/><path class="cls-3" d="M26,16.53c.43-2.46.54-5.19,1-6.82s2.81-4.06,2.81-4.06"/><path class="cls-3" d="M18.91,17.84a37.42,37.42,0,0,0-2.13-4.69,10.42,10.42,0,0,1-1.62-4.44"/><path class="cls-3" d="M27.29,8.93S25.88,5.09,26,3.53A6.25,6.25,0,0,0,25,.28"/><path class="cls-3" d="M18.22,20.53a28.14,28.14,0,0,0-3.88-2.38"/><path class="cls-3" d="M16,11.76c.33-.92,2.15-3.92,1-6.73"/><path class="cls-3" d="M14.91,22.92c-1.48-.2-2.42-.62-3.84-.29A10.25,10.25,0,0,0,8,24.3s-2.5,2.16-3.84,2.21"/><path class="cls-3" d="M32.59,25A9.37,9.37,0,0,0,38,24c2.44-1.13,5.81.31,5.81.31"/><path class="cls-3" d="M25.59,33A53.05,53.05,0,0,1,27,39.21a54.47,54.47,0,0,0,3.59,9.5c2,3.26,5,11.25,5,11.25.63,3.38-.74,4.5-1,6.75s-.54,6-.54,6"/><path class="cls-3" d="M18.91,29.28c-1,.93-2.32,2.75-3.75,3.25S11.59,36,10.91,37.21s-2.44,4-2.44,4"/><path class="cls-3" d="M28.34,21.55c1.63-.9,2.57-3.21,5.13-4.71S38.59,16,39.91,15"/><path class="cls-3" d="M35.82,61c2.09,1.75,6,3.13,8,4.38a14.16,14.16,0,0,1,3.44,3"/><path class="cls-3" d="M34.62,57.35C36.78,58.71,40.78,60.09,43,61a6,6,0,0,0,4.25,0"/><path class="cls-3" d="M41,63.87a6.52,6.52,0,0,1,1,4V70"/><path class="cls-3" d="M34.55,67.69c-1,.32-2.73,3.07-3.23,5"/><line class="cls-3" x1="35.19" y1="64.65" x2="36.57" y2="66.94"/><path class="cls-3" d="M11.13,36.83a22.38,22.38,0,0,0,1.61,5.51"/><path class="cls-3" d="M8,24.3a11.3,11.3,0,0,1-4.54-.7A3,3,0,0,0,.32,24"/><line class="cls-3" x1="3.89" y1="23.8" x2="2.82" y2="20.92"/><path class="cls-3" d="M39.91,23.6a13.78,13.78,0,0,0,2.75,3.53"/><path class="cls-3" d="M42,23.79a4,4,0,0,1,3.91-1.43"/><path class="cls-3" d="M32.94,17.18s.05,1.66,3.63,2.16A16.28,16.28,0,0,0,44,18.26"/></g></g></g></svg>