<svg xmlns="http://www.w3.org/2000/svg" viewBox="0 0 12.71 27.15"><defs><style>.cls-1{fill:#ee757b;}</style></defs><title>float-6</title><g id="Layer_2" data-name="Layer 2"><g id="Home_alternative" data-name="Home alternative"><path id="float-6" class="cls-1" d="M11.75.17c-1-.52-2.17.22-2.8,1.25A72.35,72.35,0,0,0,6.32,8.77C5.62,6.91,4.5,3.59,4.28,3,4,2.27,2.63-.4,1.15.05.24.33-.17,1.76.06,2.73A90.29,90.29,0,0,0,3.25,12,3.45,3.45,0,0,0,4.39,13.1,4.32,4.32,0,0,0,4,14.15a98.34,98.34,0,0,0,.5,10.71c.16,1.08,1.16,2.37,2.19,2.29,1.69-.14,2-3.43,2-4.3s-.34-6.93-.24-8A3.22,3.22,0,0,0,8,13.1a6.72,6.72,0,0,0,2-2.73c.28-.74,2-6,2.51-6.9S12.72.68,11.75.17Z"/></g></g></svg>