<svg xmlns="http://www.w3.org/2000/svg" viewBox="0 0 22.83 18.36"><defs><style>.cls-1{fill:#ee757b;}</style></defs><title>float-5</title><g id="Layer_2" data-name="Layer 2"><g id="Home_alternative" data-name="Home alternative"><path id="float-5" class="cls-1" d="M5.59.13c-.87.44-1,1.69-.52,2.68a64.82,64.82,0,0,0,4,5.7C7.35,8.06,4.36,7.17,3.82,7S.48,6.48.05,7.79C-.21,8.6.62,9.63,1.44,10a77.85,77.85,0,0,0,8.38,2.43,2.91,2.91,0,0,0,1.41-.25,3.52,3.52,0,0,0,.59.8,87.13,87.13,0,0,0,8.06,5.15c.87.43,2.32.37,2.79-.42.77-1.31-1.46-3.22-2.1-3.66s-5.23-3.32-6-4a2.91,2.91,0,0,0-1.48-.56,6,6,0,0,0-1-2.82c-.4-.59-3.31-4.58-3.74-5.38S6.46-.32,5.59.13Z"/></g></g></svg>