<svg xmlns="http://www.w3.org/2000/svg" viewBox="0 0 15.52 21.04"><defs><style>.cls-1{fill:#fdc676;}</style></defs><title>float-7</title><g id="Layer_2" data-name="Layer 2"><g id="Home_alternative" data-name="Home alternative"><path id="float-7" class="cls-1" d="M8.5,18.53c.21-1.28,1.26-5.53,1.18-7a3.63,3.63,0,0,0-.2-1.07,3.86,3.86,0,0,0,.66-.37c1.09-.75,3.53-3.79,4.31-4.63s1.44-2.05.82-2.58a1.34,1.34,0,0,0-1.67.06c-.2.19-1.27,1.46-2.43,2.72-.63.69-1.3,1.38-1.78,1.88.1-.69.24-1.63.4-2.56.3-1.69.65-3.31.68-3.58A1.34,1.34,0,0,0,9.5,0C8.71-.15,8.15,1.1,8,2.24s-1.13,4.91-1,6.24a3.48,3.48,0,0,0,.1.74,3.55,3.55,0,0,0-1,.5c-1.24.84-4,4.26-4.85,5.21s-1.62,2.3-.93,2.89a1.49,1.49,0,0,0,1.88-.07c.22-.21,1.43-1.63,2.74-3.05.71-.78,1.45-1.55,2-2.11-.11.77-.27,1.83-.46,2.87-.33,1.9-.73,3.73-.76,4A1.49,1.49,0,0,0,6.76,21C7.65,21.21,8.28,19.8,8.5,18.53Z"/></g></g></svg>