<svg xmlns="http://www.w3.org/2000/svg" viewBox="0 0 15.5 21.04"><defs><style>.cls-1{fill:#fdc676;}</style></defs><title>float-9</title><g id="Layer_2" data-name="Layer 2"><g id="Home_alternative" data-name="Home alternative"><path id="float-9" class="cls-1" d="M14.3,14.94c-.88-.95-3.61-4.37-4.84-5.22a3.65,3.65,0,0,0-1-.49,3.42,3.42,0,0,0,.11-.75c.08-1.32-.85-5.11-1-6.24S6.81-.15,6,0a1.34,1.34,0,0,0-1,1.37c0,.27.38,1.89.67,3.58.16.92.3,1.87.4,2.56C5.64,7,5,6.33,4.34,5.64,3.19,4.37,2.11,3.1,1.92,2.92A1.34,1.34,0,0,0,.24,2.85c-.61.53,0,1.74.82,2.58s3.21,3.89,4.31,4.64a3.82,3.82,0,0,0,.65.37,3.61,3.61,0,0,0-.19,1.07c-.09,1.49,1,5.74,1.16,7s.84,2.68,1.74,2.5a1.5,1.5,0,0,0,1.09-1.54c0-.3-.43-2.13-.76-4-.18-1-.33-2.09-.45-2.87.55.56,1.29,1.34,2,2.11,1.3,1.43,2.51,2.85,2.73,3.06a1.49,1.49,0,0,0,1.88.08C15.91,17.24,15.18,15.89,14.3,14.94Z"/></g></g></svg>