<svg xmlns="http://www.w3.org/2000/svg" viewBox="0 0 41.25 29.69"><defs><style>.cls-1{fill:#ee757b;}</style></defs><title>float-1</title><g id="Layer_2" data-name="Layer 2"><g id="Home_alternative" data-name="Home alternative"><g id="float-1"><path class="cls-1" d="M17.19.73c.86-3,3.36,4.11,5.85,5.73s3.74.37,5.23,1.74-1.49,3.61-5.54,2.86S15.57,6.33,17.19.73Z"/><path class="cls-1" d="M29.93,16.18c3.15-1.13,7.32,3.54,8.48,4.12s3.93,3.83,2.38,6-5,5-9.31,2.33S25.09,17.93,29.93,16.18Z"/><path class="cls-1" d="M5.59,8.47c2.72-1,8.6.85,10.17,5.76s0,12.15-5.09,12.58S-.59,23.61.05,17.53,2.18,9.75,5.59,8.47Z"/></g></g></g></svg>