<svg xmlns="http://www.w3.org/2000/svg" viewBox="0 0 37.63 34.61"><defs><style>.cls-1,.cls-2{fill:none;stroke-miterlimit:10;}.cls-1{stroke:#fdc676;}.cls-2{stroke:#ee757b;}</style></defs><title>float-2</title><g id="Layer_2" data-name="Layer 2"><g id="Home_alternative" data-name="Home alternative"><g id="float-2"><path class="cls-1" d="M16.64,19.08s1.46-.22,2.47-2.64-.15-2.75,1.51-3.75,4,.09,5.34-1.5a3.85,3.85,0,0,0,1.25-2.91"/><path class="cls-1" d="M15.37,19.11c.55-1.38-1-5.25.46-7.83s3.92-2,5.71-4.92-1.54-3.92.21-6"/><path class="cls-1" d="M18.93,20.74c1.76-.82,2.07-2.57,4.13-3.32s6.19-1.75,8.13-4.69,2.37-5.25,4.37-6.06"/><path class="cls-1" d="M18.16,23.39c2.13-.53,3.8.22,6.13-1.28s3.58-2.25,5.33-2.42,4.42-2.91,5.25-4.75a7.12,7.12,0,0,1,2.5-2.83"/><path class="cls-2" d="M2.37,27.94c10.78-5.39,9.75-8.33,13-8.83s4,2,3.67,3.17-7.09,6.33-8.3,7.16S5.26,34,2.87,34.11C-.46,34.25,0,29.11,2.37,27.94Z"/></g></g></g></svg>