<svg xmlns="http://www.w3.org/2000/svg" viewBox="0 0 195.3 82.35"><defs><style>.cls-1{fill:#fff;}</style></defs><title>moaf-logo_2</title><g id="Layer_2" data-name="Layer 2"><g id="Layer_1-2" data-name="Layer 1"><g id="museum-of"><path class="cls-1" d="M104.48,15.78c-.11-2.09-.24-4.6-.22-6.47h-.06c-.52,1.76-1.14,3.62-1.89,5.69l-2.65,7.26H98.2l-2.42-7.13c-.71-2.11-1.31-4-1.74-5.82h0c0,1.87-.16,4.38-.29,6.62l-.4,6.42H91.47l1-15H95l2.55,7.24c.62,1.84,1.13,3.49,1.51,5h.07c.38-1.51.91-3.15,1.58-5l2.66-7.24h2.47l.93,15h-1.89Z"/><path class="cls-1" d="M118.72,19.42c0,1.11,0,2.09.09,2.93h-1.73L117,20.6h0a4.08,4.08,0,0,1-3.56,2c-1.69,0-3.71-.94-3.71-4.71V11.6h2v6c0,2.05.62,3.42,2.4,3.42a2.81,2.81,0,0,0,2.57-1.77,2.91,2.91,0,0,0,.18-1V11.6h2Z"/><path class="cls-1" d="M121.7,20.35a5.11,5.11,0,0,0,2.58.78c1.42,0,2.09-.71,2.09-1.6s-.56-1.44-2-2c-1.93-.69-2.84-1.75-2.84-3,0-1.73,1.39-3.15,3.7-3.15a5.45,5.45,0,0,1,2.65.66l-.49,1.42a4.24,4.24,0,0,0-2.2-.62c-1.15,0-1.8.67-1.8,1.47s.65,1.29,2,1.82c1.87.71,2.83,1.64,2.83,3.24,0,1.89-1.47,3.22-4,3.22a6.11,6.11,0,0,1-3-.73Z"/><path class="cls-1" d="M131.86,17.33a3.44,3.44,0,0,0,3.68,3.73,7.1,7.1,0,0,0,3-.55l.33,1.4a8.72,8.72,0,0,1-3.57.66c-3.31,0-5.29-2.17-5.29-5.42s1.91-5.79,5-5.79c3.51,0,4.44,3.08,4.44,5.06a8.16,8.16,0,0,1-.06.91Zm5.73-1.4c0-1.24-.51-3.17-2.71-3.17-2,0-2.85,1.82-3,3.17Z"/><path class="cls-1" d="M150.89,19.42c0,1.11,0,2.09.09,2.93h-1.73l-.11-1.75h0a4.05,4.05,0,0,1-3.55,2c-1.69,0-3.71-.94-3.71-4.71V11.6h2v6c0,2.05.62,3.42,2.39,3.42a2.82,2.82,0,0,0,2.58-1.77,2.91,2.91,0,0,0,.18-1V11.6h1.95Z"/><path class="cls-1" d="M154.14,14.51c0-1.11,0-2-.09-2.91h1.71l.09,1.73h.07a3.69,3.69,0,0,1,3.37-2,3.18,3.18,0,0,1,3.05,2.15h0a4.41,4.41,0,0,1,1.2-1.4,3.65,3.65,0,0,1,2.38-.75c1.42,0,3.53.93,3.53,4.66v6.33h-1.91V16.27c0-2.07-.76-3.31-2.33-3.31a2.52,2.52,0,0,0-2.31,1.77,3.19,3.19,0,0,0-.16,1v6.64h-1.91V15.91c0-1.71-.76-2.95-2.24-2.95a2.67,2.67,0,0,0-2.43,1.95,2.72,2.72,0,0,0-.15,1v6.48h-1.91Z"/><path class="cls-1" d="M187.11,16.89c0,4-2.76,5.71-5.36,5.71-2.91,0-5.15-2.14-5.15-5.54,0-3.59,2.35-5.7,5.33-5.7S187.11,13.6,187.11,16.89Zm-8.53.11c0,2.35,1.35,4.13,3.26,4.13s3.27-1.76,3.27-4.18c0-1.82-.91-4.13-3.22-4.13S178.58,15,178.58,17Z"/><path class="cls-1" d="M189.77,22.35V13.09h-1.51V11.6h1.51v-.51A5.1,5.1,0,0,1,191,7.33a3.73,3.73,0,0,1,2.62-1,4.37,4.37,0,0,1,1.66.31L195,8.16a2.83,2.83,0,0,0-1.25-.25c-1.66,0-2.08,1.47-2.08,3.11v.58h2.59v1.49h-2.59v9.26Z"/></g><g id="alternative"><path class="cls-1" d="M94.29,44.3,92.73,49h-2l5.09-15h2.33l5.11,15H101.2L99.6,44.3Zm4.91-1.51-1.47-4.31c-.33-1-.55-1.86-.78-2.73h0c-.22.89-.47,1.8-.76,2.71l-1.46,4.33Z"/><path class="cls-1" d="M105.33,33.24h2V49h-2Z"/><path class="cls-1" d="M112.93,35.17v3.09h2.8v1.49h-2.8v5.8c0,1.33.38,2.08,1.46,2.08a4.33,4.33,0,0,0,1.14-.13l.09,1.47a5,5,0,0,1-1.74.26,2.72,2.72,0,0,1-2.11-.82,4,4,0,0,1-.75-2.8V39.75h-1.67V38.26H111V35.68Z"/><path class="cls-1" d="M118.88,44a3.45,3.45,0,0,0,3.69,3.73,7.14,7.14,0,0,0,3-.55l.33,1.4a8.77,8.77,0,0,1-3.58.66c-3.31,0-5.28-2.17-5.28-5.42s1.91-5.79,5-5.79c3.51,0,4.44,3.08,4.44,5.06a6,6,0,0,1-.07.91Zm5.73-1.4c0-1.24-.51-3.18-2.71-3.18-2,0-2.84,1.83-3,3.18Z"/><path class="cls-1" d="M128.92,41.61c0-1.26,0-2.35-.09-3.35h1.72l.06,2.11h.09a3.23,3.23,0,0,1,3-2.35,2.32,2.32,0,0,1,.55.06v1.85a2.62,2.62,0,0,0-.66-.07,2.75,2.75,0,0,0-2.63,2.51,6.16,6.16,0,0,0-.08.91V49h-1.94Z"/><path class="cls-1" d="M136.28,41.17c0-1.11,0-2-.09-2.91h1.73L138,40h.05a3.92,3.92,0,0,1,3.55-2c1.49,0,3.8.88,3.8,4.57V49h-2v-6.2c0-1.73-.64-3.17-2.48-3.17a2.77,2.77,0,0,0-2.62,2,2.72,2.72,0,0,0-.14.91V49h-1.95Z"/><path class="cls-1" d="M154.56,49l-.16-1.35h-.06a4,4,0,0,1-3.29,1.6,3.07,3.07,0,0,1-3.29-3.09c0-2.6,2.31-4,6.47-4V42a2.22,2.22,0,0,0-2.45-2.49,5.36,5.36,0,0,0-2.8.8L148.54,39a6.66,6.66,0,0,1,3.53-.95c3.29,0,4.09,2.24,4.09,4.39v4a14.43,14.43,0,0,0,.18,2.58Zm-.29-5.49c-2.13,0-4.55.34-4.55,2.43a1.73,1.73,0,0,0,1.84,1.86,2.68,2.68,0,0,0,2.6-1.8,1.93,1.93,0,0,0,.11-.62Z"/><path class="cls-1" d="M161.58,35.17v3.09h2.8v1.49h-2.8v5.8c0,1.33.38,2.08,1.47,2.08a4.19,4.19,0,0,0,1.13-.13l.09,1.47a5,5,0,0,1-1.73.26,2.71,2.71,0,0,1-2.11-.82,4,4,0,0,1-.76-2.8V39.75H158V38.26h1.67V35.68Z"/><path class="cls-1" d="M168.76,35.24a1.21,1.21,0,0,1-2.42,0A1.19,1.19,0,0,1,167.56,34,1.16,1.16,0,0,1,168.76,35.24ZM166.58,49V38.26h1.95V49Z"/><path class="cls-1" d="M172.53,38.26l2.11,6a26.21,26.21,0,0,1,.87,2.76h.07c.24-.89.55-1.78.91-2.76l2.09-6h2L176.4,49h-1.87l-4.08-10.75Z"/><path class="cls-1" d="M183.33,44A3.44,3.44,0,0,0,187,47.72a7,7,0,0,0,3-.55l.34,1.4a8.77,8.77,0,0,1-3.58.66c-3.31,0-5.29-2.17-5.29-5.42s1.91-5.79,5-5.79C190,38,191,41.1,191,43.08a6,6,0,0,1-.07.91Zm5.73-1.4c0-1.24-.51-3.18-2.71-3.18-2,0-2.84,1.83-3,3.18Z"/></g><g id="facts"><path class="cls-1" d="M91.87,60.7h8.06v1.62H93.8v5h5.66v1.6H93.8v6.77H91.87Z"/><path class="cls-1" d="M107.57,75.67l-.15-1.35h-.07a4,4,0,0,1-3.29,1.6,3.06,3.06,0,0,1-3.28-3.09c0-2.6,2.31-4,6.46-4v-.22a2.21,2.21,0,0,0-2.44-2.49,5.33,5.33,0,0,0-2.8.8l-.45-1.29a6.67,6.67,0,0,1,3.54-1c3.28,0,4.08,2.25,4.08,4.4v4a15.43,15.43,0,0,0,.18,2.58Zm-.29-5.49c-2.13,0-4.55.34-4.55,2.43a1.73,1.73,0,0,0,1.84,1.86,2.68,2.68,0,0,0,2.6-1.8,1.93,1.93,0,0,0,.11-.62Z"/><path class="cls-1" d="M120,75.27a7.14,7.14,0,0,1-3.09.62,5.11,5.11,0,0,1-5.35-5.48,5.47,5.47,0,0,1,5.78-5.71,6.7,6.7,0,0,1,2.71.55l-.45,1.51a4.58,4.58,0,0,0-2.26-.51c-2.47,0-3.8,1.82-3.8,4.07a3.68,3.68,0,0,0,3.73,4,5.48,5.48,0,0,0,2.4-.54Z"/><path class="cls-1" d="M124.92,61.83v3.09h2.8v1.49h-2.8v5.8c0,1.33.38,2.08,1.47,2.08a4.19,4.19,0,0,0,1.13-.13l.09,1.47a5,5,0,0,1-1.73.26,2.72,2.72,0,0,1-2.11-.82,4,4,0,0,1-.76-2.8V66.41h-1.66V64.92H123V62.34Z"/><path class="cls-1" d="M129.66,73.67a5.07,5.07,0,0,0,2.57.78c1.42,0,2.09-.71,2.09-1.6s-.55-1.44-2-2c-1.93-.69-2.84-1.75-2.84-3,0-1.73,1.4-3.16,3.71-3.16a5.4,5.4,0,0,1,2.64.67l-.49,1.42a4.24,4.24,0,0,0-2.2-.62c-1.15,0-1.8.67-1.8,1.47s.65,1.29,2,1.82c1.86.71,2.82,1.64,2.82,3.24,0,1.89-1.47,3.22-4,3.22a6.15,6.15,0,0,1-3-.73Z"/></g><g id="logomark"><path class="cls-1" d="M53.09,41.33H49.52V17c0-9.31-4.79-13.47-9.53-13.47-5,0-10,4.71-10,13.7v4.56H26.44V17.27C26.44,5.93,33.25,0,40,0a11.83,11.83,0,0,1,9.16,4.42C51.73,7.5,53.09,11.87,53.09,17Z"/><path class="cls-1" d="M21.83,54.39H17.27C5.93,54.39,0,47.57,0,40.84a11.83,11.83,0,0,1,4.42-9.16C7.5,29.1,11.87,27.74,17,27.74H41.33v3.57H17c-9.31,0-13.47,4.79-13.47,9.53,0,5,4.71,10,13.7,10h4.56Z"/><path class="cls-1" d="M39.76,82.35a11.83,11.83,0,0,1-9.16-4.42c-2.58-3.08-3.94-7.45-3.94-12.62V41h3.57V65.31c0,4.32,1.07,7.9,3.1,10.33a8.36,8.36,0,0,0,6.43,3.14c5,0,10-4.71,10-13.71V60.52h3.57v4.55C53.31,76.41,46.49,82.35,39.76,82.35Z"/><path class="cls-1" d="M62.7,54.61H38.42V51H62.7C67,51,70.61,50,73,47.93a8.32,8.32,0,0,0,3.14-6.42c0-5-4.71-10-13.71-10H57.92V28h4.55c11.34,0,17.28,6.81,17.28,13.55C79.75,47.82,74.41,54.61,62.7,54.61Z"/><path class="cls-1" d="M11,21.51H9.91L5.18,10.3c-.65-1.55-1.31-3.23-2-5H3.1q.19,3.92.2,7.17v9.08H1V2.73h3.3L8.73,13.36c.51,1.21,1.06,2.68,1.67,4.39h.07c.68-1.9,1.23-3.36,1.67-4.39L16.56,2.73h3.3V21.51H17.57V12.43c0-2.12.07-4.52.2-7.17h-.11q-1,2.88-2,5Z"/><path class="cls-1" d="M77.62,12.13A11.94,11.94,0,0,1,77,16.05a8.83,8.83,0,0,1-1.75,3.07,7.89,7.89,0,0,1-2.75,2,8.7,8.7,0,0,1-3.6.72,9.07,9.07,0,0,1-3.69-.72,7.84,7.84,0,0,1-2.76-2,8.93,8.93,0,0,1-1.72-3.07,12.21,12.21,0,0,1-.6-3.92,12,12,0,0,1,.62-3.93A9.1,9.1,0,0,1,62.5,5.12a8,8,0,0,1,2.75-2,8.83,8.83,0,0,1,3.62-.72,8.94,8.94,0,0,1,3.67.72,7.83,7.83,0,0,1,2.75,2A8.9,8.9,0,0,1,77,8.2,12.27,12.27,0,0,1,77.62,12.13Zm-2.28,0a10.35,10.35,0,0,0-.49-3.34,7,7,0,0,0-1.37-2.41,5.77,5.77,0,0,0-2.06-1.47,6.85,6.85,0,0,0-5.09,0,5.77,5.77,0,0,0-2.06,1.47A7,7,0,0,0,62.9,8.79a10.34,10.34,0,0,0-.5,3.34,10,10,0,0,0,.51,3.34,7,7,0,0,0,1.37,2.41,5.75,5.75,0,0,0,2.06,1.46,6.75,6.75,0,0,0,2.56.49,6.59,6.59,0,0,0,2.53-.49,5.8,5.8,0,0,0,2-1.46,7,7,0,0,0,1.37-2.41A10.26,10.26,0,0,0,75.34,12.13Z"/><path class="cls-1" d="M2,80.35,9.69,61.57h2l7.65,18.78H16.84L14.59,74.7H6.74L4.5,80.35Zm8.62-15.86Q9.4,68,8.26,70.87l-.7,1.76h6.22l-.71-1.76c-.77-2-1.55-4.07-2.35-6.38Z"/><path class="cls-1" d="M63.44,80.35H61.16V61.57h11.2v2.07H63.44V69.7h7.91v2.06H63.44Z"/></g></g></g></svg>