<svg xmlns="http://www.w3.org/2000/svg" viewBox="0 0 74.42 64.02"><defs><style>.cls-1{fill:#fff;}</style></defs><title>my-future-gene-logo</title><g id="Layer_2" data-name="Layer 2"><g id="Home_alternative" data-name="Home alternative"><path class="cls-1" d="M1.15,55.54,0,53.82a19.92,19.92,0,0,1,5.72-2.65A12.22,12.22,0,0,1,9.3,51l-.21,2a10.67,10.67,0,0,0-3,.16A18.26,18.26,0,0,0,1.15,55.54Z"/><path class="cls-1" d="M65.05,64,59.11,50.15,55.4,46.44a52.15,52.15,0,0,1-3.82,6.82c-.28.35-.58.76-.91,1.2-2.17,3-5.45,7.44-11.37,6.94-5.73-.47-6.9-7.5-7.42-10.08l1.8-1.48c.79,4.43,2,9.18,5.79,9.5,4.76.4,7.52-3.36,9.53-6.1.35-.47.66-.9,1-1.28a63.27,63.27,0,0,0,4.21-7.72l.62-1.33L60.85,49l5.33,12.42,4.7-1.77.19-.39h-4L63.9,46.58l-5.26-8.64-1.2-5.16V23l5.5,5.5L67,32.12l-5-7-.92-9.41-3.43-2.67V8.91H60l.17-2.23,1.08-.27L60.26,4,57.88,2.25l-3.36.84-.62,4,.86,4.29-.63.38A47,47,0,0,0,45,19.1c-4.61,4.95-8,13.74-11,21.5-3.7,9.63-6.9,17.95-12,19.22-5.38,1.36-7.75-2.29-8.79-4.36L14.8,53.9c.17.49,1.56,5.18,6.74,3.92,4-1,7.19-9.25,10.54-18,3.19-8.32,6.5-16.92,11.37-22.16a48.21,48.21,0,0,1,9-7.31L51.8,7.15l.88-5.74L58.33,0,62,2.72,64,7.85l-1.93.48L61.88,11H59.7v1.09L63,14.66l1,9.74,4.55,6.3,2.71,1.16,2,4.09H68.23L61.5,30l-2-2v4.52l1.07,4.6,5.25,8.63,2.84,11.38h5.75l-2,4.12Zm4-30.14H70l-.21-.41-2.34-1Z"/><path class="cls-1" d="M6.46,63.58,5.37,61.82c2.65-1.65,4.35-6,6.15-10.61C14.1,44.59,17,37.09,23.86,37.09c3.34,0,4.87,2.31,5.88,3.84l-1.57,1.39L28,42.08c-1-1.44-1.93-2.92-4.15-2.92-5.42,0-8,6.51-10.41,12.8C11.52,56.9,9.7,61.57,6.46,63.58Z"/><rect class="cls-1" x="20.64" y="38.87" width="2.07" height="19.95"/><rect class="cls-1" x="25.55" y="38.64" width="2.07" height="16.04"/><rect class="cls-1" x="15.73" y="42.78" width="2.07" height="15.01"/><rect class="cls-1" x="40.42" y="22.08" width="2.07" height="15.52"/><rect class="cls-1" x="40.42" y="44.85" width="2.07" height="15.78"/><rect class="cls-1" x="45.36" y="16.39" width="2.07" height="10.87"/><rect class="cls-1" x="45.59" y="47.18" width="2.07" height="10.87"/><rect class="cls-1" x="35.39" y="31.94" width="2.07" height="27.14"/></g></g></svg>