<svg xmlns="http://www.w3.org/2000/svg" viewBox="0 0 266 300.61"><defs><style>.cls-1{fill:none;stroke:#3fa9f5;stroke-miterlimit:10;stroke-width:5px;}.cls-2{fill:#3fa9f5;}</style></defs><title>side-face</title><g id="Layer_2" data-name="Layer 2"><g id="Home_1" data-name="Home 1"><path id="side-face" class="cls-1" d="M44.5,298.5s25-16,7-67C44.89,212.78,32,191.5,32,164V111.5C32,53.47,79.47,6,137.5,6h0c42.47,0,76.42,33.62,99,81.5,8.27,17.54,27,34.55,27,56l-22,5,11,27L242.32,195,243,222.5c0,16-19.48,26-77.5,26"/><path id="hair" class="cls-2" d="M138,0c83,0,101,47.5,101,77H152.5v99.5l-34-18L112,100s-41,4-45.5,28.5C62,152.84,66,165,85,200s11.5,61.5,11.5,61.5l-52-13S0,198,0,117,73,0,138,0Z"/><ellipse id="eye" class="cls-1" cx="215" cy="114.5" rx="3.5" ry="7"/><line id="eyebrow" class="cls-1" x1="178.5" y1="91.5" x2="223.5" y2="91.5"/><g id="ear"><path class="cls-1" d="M110.5,117.5c-9.5-9.5-33-2-33,12s9,40,23,40c9,0,10-6,10-6"/><path class="cls-1" d="M99.5,135.5c-9.55-4.29-9,18,2,18,8,0,7-6,7-6"/><path class="cls-1" d="M84.5,127.5c5-5,17-8,21-3s-1,15-8,16"/></g></g></g></svg>