<svg xmlns="http://www.w3.org/2000/svg" viewBox="0 0 30.72 30.72"><defs><style>.cls-1{fill:#fff;}</style></defs><title>twitter</title><g id="Layer_2" data-name="Layer 2"><g id="quiz_result" data-name="quiz result"><path id="twitter" class="cls-1" d="M21.49,0H9.23A9.25,9.25,0,0,0,0,9.23V21.49a9.26,9.26,0,0,0,9.23,9.23H21.49a9.27,9.27,0,0,0,9.23-9.23V9.23A9.26,9.26,0,0,0,21.49,0Zm3,11.06A12.29,12.29,0,0,1,5.6,22,8.68,8.68,0,0,0,12,20.18a4.32,4.32,0,0,1-4-3,4.25,4.25,0,0,0,2-.07,4.32,4.32,0,0,1-3.46-4.29,4.31,4.31,0,0,0,2,.54A4.33,4.33,0,0,1,7.07,7.59,12.24,12.24,0,0,0,16,12.11a4.32,4.32,0,0,1,7.36-3.94,8.91,8.91,0,0,0,2.74-1,4.3,4.3,0,0,1-1.9,2.39,9,9,0,0,0,2.49-.68A8.65,8.65,0,0,1,24.5,11.06Z"/></g></g></svg>